<svg xmlns="http://www.w3.org/2000/svg" viewBox="0 0 48 48">
<path fill="#FFC107" d="M43.6 20.5H42V20H24v8h11.3C33.6 31.7 29.2 35 24 35 16.8 35 11 29.2 11 22s5.8-13 13-13c3.3 0 6.3 1.2 8.6 3.3l5.7-5.7C34.5 3.6 29.5 1.5 24 1.5 11.5 1.5 1.5 11.5 1.5 24S11.5 46.5 24 46.5 46.5 36.5 46.5 24c0-1.2-.1-2.4-.3-3.5z"></path>
<path fill="#FF3D00" d="M6.3 14.7l6.6 4.9C14.6 16 19 13 24 13c3.3 0 6.3 1.2 8.6 3.3l5.7-5.7C34.5 3.6 29.5 1.5 24 1.5 15.7 1.5 8.4 6.1 4.6 13.1z"></path>
<path fill="#4CAF50" d="M24 46.5c5.2 0 10.1-2 13.8-5.3l-6.4-5.4C29.1 37.8 26.7 38.5 24 38.5c-5.2 0-9.6-3.3-11.3-7.9l-6.6 5C8.4 41.9 15.7 46.5 24 46.5z"></path>
<path fill="#1976D2" d="M43.6 20.5H42V20H24v8h11.3c-1.6 3.6-6 6.5-11.3 6.5-5.2 0-9.6-3.3-11.3-7.9l-6.6 5C8.4 41.9 15.7 46.5 24 46.5 36.5 46.5 46.5 36.5 46.5 24c0-1.2-.1-2.4-.3-3.5z"></path>
</svg>
